<svg xmlns="http://www.w3.org/2000/svg" width="16" height="16"><g data-name="그룹 6110"><path data-name="사각형 17225" style="fill:none" d="M0 0h16v16H0z"/></g><g data-name="그룹 6111"><path data-name="패스 30005" d="M9.6 15.769a.409.409 0 0 1-.4-.468l.638-4.5H7.355c-.624 0-.234-.532-.22-.553.894-1.582 2.235-3.923 4.008-7.044A.411.411 0 0 1 11.5 3a.409.409 0 0 1 .4.468l-.638 4.5h2.49c.284 0 .44.135.284.468q-3.5 6.108-4.079 7.129a.4.4 0 0 1-.357.204Z" transform="translate(-2.548 -1.385)" style="fill:#ff3a55"/></g></svg>
