<svg id="icn_dashboard-modal_close" xmlns="http://www.w3.org/2000/svg" width="24" height="24"><defs><style>.cls-1{fill:none}</style></defs><rect id="사각형_8834" data-name="사각형 8834" class="cls-1" width="24" height="24" rx="8"/><g id="close_black_24dp" transform="translate(2 2)"><path id="패스_800" data-name="패스 800" class="cls-1" d="M0 0h20v20H0Z"/><path id="패스_801" data-name="패스 801" d="M16.106 5.659a.826.826 0 0 0-1.17 0l-4.058 4.049L6.82 5.65a.827.827 0 0 0-1.17 1.17l4.058 4.058-4.058 4.058a.827.827 0 1 0 1.17 1.17l4.058-4.058 4.058 4.058a.827.827 0 1 0 1.17-1.17l-4.058-4.058 4.058-4.058a.832.832 0 0 0 0-1.161Z" transform="translate(-.878 -.878)" style="fill:#a3a3a3"/></g></svg>