<svg id="icn_dashboard_setting" xmlns="http://www.w3.org/2000/svg" width="32" height="32"><defs><style>.cls-1{fill:none}</style></defs><rect id="사각형_5724" data-name="사각형 5724" class="cls-1" width="32" height="32" rx="8"/><g id="settings_black_24dp_1_" data-name="settings_black_24dp (1)" transform="translate(5.702 5.702)"><path id="사각형_8063" data-name="사각형 8063" class="cls-1" transform="translate(.298 .298)" d="M0 0h20v20H0z"/><path id="패스_770" data-name="패스 770" d="M16 9.97c0-.183-.008-.359-.024-.542L17.463 8.3a.8.8 0 0 0 .207-1.036l-1.49-2.57a.787.787 0 0 0-1-.335l-1.714.725a6.047 6.047 0 0 0-.933-.542L12.306 2.7a.8.8 0 0 0-.789-.7H8.544a.8.8 0 0 0-.8.7l-.228 1.843a6.047 6.047 0 0 0-.933.542L4.87 4.359a.787.787 0 0 0-1 .335L2.383 7.276a.8.8 0 0 0 .207 1.036l1.483 1.124c-.016.175-.024.351-.024.534s.008.359.024.542L2.59 11.636a.8.8 0 0 0-.207 1.036l1.49 2.574a.787.787 0 0 0 1 .335l1.714-.725a6.047 6.047 0 0 0 .933.542l.231 1.841a.8.8 0 0 0 .789.7h2.973a.8.8 0 0 0 .789-.7l.231-1.841a6.047 6.047 0 0 0 .933-.542l1.714.725a.787.787 0 0 0 1-.335l1.49-2.574a.8.8 0 0 0-.207-1.036l-1.482-1.124A4.121 4.121 0 0 0 16 9.97Zm-5.946 2.79a2.79 2.79 0 1 1 2.79-2.79 2.793 2.793 0 0 1-2.786 2.79Z" transform="translate(.272 .328)" style="fill:#bebebe"/></g></svg>