<svg xmlns="http://www.w3.org/2000/svg" width="214" height="221.999"><defs><linearGradient id="a" x1="1" y1=".021" x2=".017" y2="1" gradientUnits="objectBoundingBox"><stop offset="0" stop-color="#ffa100"/><stop offset="1" stop-color="#ff3a55"/></linearGradient></defs><path data-name="합치기 69" d="M0-3142v-202a15.9 15.9 0 0 1 4.686-11.314A15.893 15.893 0 0 1 16-3360h194a4 4 0 0 1 4 4 4 4 0 0 1-4 4H16a8.01 8.01 0 0 0-8 8v202a4 4 0 0 1-4 4 4 4 0 0 1-4-4Z" transform="translate(0 3360)" style="fill:url(#a)"/><g data-name="합치기 70" style="fill:none;stroke-linecap:round;stroke-dasharray:3 6;opacity:.4"><path d="M0 218V14A14 14 0 0 1 14 0h196a1 1 0 0 1 0 2H14A12.015 12.015 0 0 0 2 14v204a1 1 0 1 1-2 0ZM2 77Z" style="stroke:none" transform="translate(3 3)"/><path d="M11.62510204 2.21483374c-.4733858-.0000279-.8940668-.33760047-.98247718-.81986106-.0992775-.54154432.25785255-1.06111246.79825496-1.16300292.4736309-.08701667.95321083-.14984757 1.43829727-.18802228.00696373-.00054716.01395512-.00109304.02091885-.0016307a15.13869216 15.13869216 0 0 1 .02083778-.00159354c.00723648-.00054865.0137272-.00103506.02097512-.00157307.00712299-.00052936.01391887-.00102853.02104759-.00154705.00464725-.0003382.00882244-.00064074.01347446-.0009746a15.16723324 15.16723324 0 0 1 .02079392-.00147737c.006855-.00048226.01418781-.000992.02104664-.00146424a14.40272773 14.40272773 0 0 1 .0206337-.001405c.0067911-.00045753.01363468-.00091338.02042865-.0013613a14.47834597 14.47834597 0 0 1 .01974487-.0012878c.00561524-.00036243.01131916-.00072784.01693917-.00108374.00669956-.00042424.0136156-.000857.02031708-.0012719.0067892-.00042022.01354217-.00083287.02033329-.00124357a14.00516785 14.00516785 0 0 1 .02068424-.0012351c.00677204-.0003994.0135231-.00079302.02029896-.00118288a14.50758281 14.50758281 0 0 1 .0199623-.00113495c.00595856-.00033459.01146222-.00064133.01742364-.0009687.00683307-.00037526.01394748-.00076024.02078628-.00112595.00683785-.00036548.01381874-.0007332.02065468-.0010887.00676823-.00035204.01361847-.00070309.02038956-.00104541.00657653-.00033261.0134306-.00067403.02000904-.00099758a14.43736067 14.43736067 0 0 1 .01964473-.00095218c.00645733-.00030855.01278496-.00060687.01924515-.0009068.00672436-.00031205.01320076-.0006084.01992512-.00091117.00691795-.00031144.01329613-.00059377.02021694-.00089544.00680065-.0002964.01378632-.00059569.0205822-.00088225a14.24807444 14.24807444 0 0 1 .02023983-.00083854 14.1384273 14.1384273 0 0 1 .0204382-.0008178c.0064888-.00025498.01274204-.00049676.0192337-.00074315.00641918-.0002436.01274586-.00047991.01916885-.0007151.000206-.00000755.00038052-.00001394.00058651-.00002159.17424011-.00637172.34894371-.00956821.52423191-.00956821h1.72934532c.54284.0109048.97956562.454343.97956562.99979411 0 .55229408-.44770431 1.00000006-.99999904 1.00000006h-1.7089119c-.23706436 0-.47299385.0069381-.70670128.02056873-.00292015.00016832-.00590229.00034308-.00882244.00051355-.15800094.00933671-.31522941.02174926-.47154426.03717399l-.00042248.00004172c-.00301075.00029707-.00690174.00068355-.00990677.00098205-.00328255.00032663-.00689411.00068808-.01017094.00101685-.00357437.00035859-.00699234.00070358-.0105648.0010655-.00361347.00036597-.00710392.00072145-.01071167.0010898-.00344086.00035048-.00686932.00070334-.01029968.00105716l-.00004673.00000476c-.01691342.00174332-.03374481.00351334-.05063725.00532723-.01199722.00127506-.02391243.00233006-.03585243.00317264-.29176521.03173303-.581604.0739262-.86814308.1264565-.06097508.01117825-.1216116.01657056-.1814642.01656699Zm193.08420277-.21503747h-4.29768372c-.54284668-.01090479-.97955322-.45434308-.97955322-.99979412 0-.55229417.44770813-1.00000005 1-1.00000005H204.72973633c.54283142.0109048.97956848.454343.97956848.99979411 0 .55229408-.44770813 1.00000006-1 1.00000006Zm5.29040527 0h-.58808899c-.54284668-.01090479-.97955322-.45434308-.97955322-.99979412 0-.55229417.44770813-1.00000005 1-1.00000005h.56764221v1.99979417Zm.65153504-.24114716c.00082397-.00070476.00163269-.00141275.00245666-.00212014-.00080871.00070513-.00164795.00141716-.00245666.00212014Zm.00245666-.00212014c.00027466-.00024235.00053406-.00046181.00080872-.0007044-.00027466.00023603-.00053406.0004686-.00080872.0007044Zm.00080872-.0007044c.00057983-.00049472.00112915-.00097967.00170898-.0014757-.00056457.00048626-.0011444.0009904-.00170898.0014757Zm.00170898-.0014757c.00004578-.0000441.00012207-.00010693.00016785-.00015115-.00004578.00004506-.00012207.0001061-.00016785.00015115Zm.00016785-.00015115c.03804016-.03313494.0735321-.06908298.10617065-.1075585-.02742004.03231037-.05685424.06286145-.08810424.09144367-.00064087.00055587-.0012207.00112104-.00186158.00169825-.00535583.00486696-.01072693.009642-.01620483.01441658Zm.10627746-.10768843c.00064087-.00075936.00131226-.00154078.00195313-.00230205-.00064087.0007646-.001297.00153947-.00195313.00230205Zm.00218201-.00257242c.00062561-.00074851.00123596-.00147044.00186157-.00222075-.0006256.0007428-.00123596.00147975-.00186157.00222075Zm.00210571-.00250602c.0005951-.0007242.0012207-.00147259.00183106-.00219857-.0005951.00072074-.00123596.0014795-.00183106.00219857Zm.00209046-.0025134c.00067139-.0008055.00131225-.00158585.00198364-.00239349-.00065613.00079525-.00132751.00160039-.00198364.00239349Zm.00204468-.00245881c.0020752-.0025288.00415039-.00505925.00621032-.0076089-.00205993.00255132-.00411987.00507856-.00621032.0076089Zm.00639343-.007828c.00061035-.0007478.0012207-.00150335.0018158-.00225282-.00061036.0007552-.00120545.00149942-.0018158.00225282Zm.00224304-.0027771c.00050354-.00064278.0010376-.00129402.00154114-.0019381-.00050354.00063502-.0010376.00130438-.00154114.0019381Zm.00213623-.00267065c.00045777-.00057733.00090027-.00112974.00135803-.00170815-.0004425.00056315-.00091552.00114608-.00135803.00170815Zm.00205994-.0026052c.00042724-.00052511.00085449-.00107717.00128174-.00160312-.000412.00051546-.00086975.0010885-.00128174.00160312Zm.00198364-.00250482c.00039673-.00049949.00080872-.00102937.00120545-.0015297-.00038147.00049222-.00082398.0010382-.00120545.0015297Zm.00202942-.00259352c.00038147-.00047374.00074768-.00095522.00112915-.00142968-.00036621.00046885-.00076294.00096155-.00112915.00142968Zm.00193787-.0024755c.0003662-.00047505.00074768-.0009712.00111389-.00144684-.00038147.00049472-.00073242.00095284-.0011139.00144684Zm.00196838-.00254536c.00038147-.0004897.00076294-.00098562.00112915-.00147617-.00035095.00047124-.00076294.00100565-.00112915.00147617Zm.00190735-.00248336c.0004425-.00057292.00086975-.00114191.00131225-.00171566-.00042724.00057196-.00086975.00114464-.00131225.00171566Zm.00268555-.00351942c.0003662-.0004791.00074768-.0009712.00109863-.0014509-.00036621.0004989-.00071717.0009526-.00109863.0014509Zm.00209045-.00275731c.00027466-.0003705.00057983-.00077117.0008545-.00114203-.00027467.00037504-.00056458.00076735-.0008545.00114203Zm.00193787-.00257385c.00027465-.00037146.00054931-.00072873.00082397-.00110066-.00028992.0003761-.00054932.00072515-.00082397.00110066Zm.00190734-.0025543c.0002594-.00034475.00050354-.00068354.00076294-.00102865-.0002594.00035178-.00050354.00067722-.00076294.00102865Zm.00187684-.00252902c.0002594-.00034559.00048828-.0006752.00074768-.00102115-.00024414.00032735-.00050354.00069404-.00074768.00102115Zm.0018463-.00250697c.0002594-.00034643.00050355-.00069082.00076295-.0010376-.0002594.00035357-.00050354.0006845-.00076294.0010376Zm.00187684-.00256062c.00021362-.00030553.00045776-.00063622.00068665-.00094211-.00022889.00030363-.00047303.00063872-.00068665.00094211Zm.00186157-.0025556c.0001831-.00026465.00038147-.00053252.00056458-.00079728-.00019837.00027895-.00036621.00051844-.00056458.00079727Zm.00184632-.00257386c.00009155-.00012564.00019836-.00027322.00028991-.00039887-.00009155.00012708-.00019836.0002718-.00028991.00039887Zm.0068817-.00966477c.00006104-.00008452.00010682-.00014698.00016786-.0002315-.00006104.00007689-.00012207.00015461-.00016785.0002315Zm.0016327-.00233865c.00010681-.00014102.00019836-.00028515.00030518-.0004264-.00009156.0001285-.00021363.00029801-.00030518.0004264Zm.00170898-.00246143c.00012207-.00016964.00024414-.00033617.00035096-.00050592-.00010682.0001545-.00024414.00035154-.00035096.00050592Zm.00172425-.00247693c.00013733-.00019848.00027466-.00039709.00041198-.00059557-.00013732.0001806-.00028991.00041497-.00041198.00059557Zm.00177002-.00258863c.0001068-.00015628.00022888-.00032663.00033569-.00048292-.00010681.00015521-.00022888.0003277-.0003357.00048292Zm.00172424-.00253141c.00012207-.00017083.00022888-.00032198.0003357-.00049281-.00010682.00015545-.00022889.00033736-.0003357.00049281Zm.00175476-.00257528c.0000763-.00011408.00016785-.00024533.00024414-.00035941-.0000763.00010383-.0001831.00025558-.00024414.00035941Zm.0017395-.0025773c0-.0000143.00001526-.00002456.00001526-.00003887l-.00001526.00003887Zm.00828553-.01256132v-.00000549.00000549Zm.00154113-.0023929c.00006104-.00007235.00009156-.00013875.00013733-.00021111-.00004577.00007903-.0000763.00013208-.00013733.00021112Zm.0016327-.0025215c.00004577-.00008703.0001068-.00018025.00016784-.00026727-.00004578.00007927-.00012207.0001881-.00016785.00026726Zm.00164794-.00258005c.00004578-.00008727.00009156-.00014437.00013733-.00023163-.00004577.0000794-.00009155.00015223-.00013733.00023163Zm.00166321-.00262726c.00001526-.0000292.00003052-.00004005.00004578-.00006926-.00001526.00002659-.00003052.00004268-.00004578.00006926Zm.01573181-.0257262c.00001526-.00001478.00001526-.00001728.00001526-.00003218l-.00001526.00003218Zm.02311707-.04133832c.18588257-.35260868.14924621-.79775387-.12628174-1.11840955-.19763184-.22999668-.47705078-.34810772-.75823975-.34827843V.0000021c.55259705 0 .9998932.44729413.9998932.99991177 0 .0011304-.00001527.00226516-.00001527.00339466 0 .00112975.00001526.0022874-.00001526.00341619-.00001525.00115847 0 .00228798-.00003051.0034467.00001526.00113987-.00003052.00225055-.00004578.00338959-.00001526.00115359-.00001526.00226903-.00004578.00342262-.00001526.00115335-.00004577.00225997-.00006103.00341213-.00003052.00115215-.00003052.00229108-.0000763.00344228-.00003051.00109947-.00006103.00225592-.00007629.00335455-.00001526.00116551-.00006103.00230682-.00010681.00347126-.00006104.00128102-.00009155.00254762-.00012207.00382817-.00009155.00142717-.0000763.0028386-.00015259.00426459-.00009155.0011015-.00010681.00219297-.00013733.0032941a.1284781.1284781 0 0 1-.00013733.00342573c-.00004577.00110769-.0000763.00226342-.00015259.00337124-.00004577.00115883-.00009155.00225329-.0001831.00341177-.00003052.00106656-.00009155.00216269-.00016785.00322854-.00006103.00115049-.0001068.00230515-.00019836.00345469-.00004578.00111913-.00012207.00230693-.00019837.00342583-.00009155.0011766-.00016784.00239432-.00022888.00356996-.00009155.00107193-.00013733.0021751-.00021362.00324703-.00010681.00155961-.00021362.00307-.00032044.00462949-.00009155.00112521-.00016784.00223958-.0002594.00336301-.00007629.00108135-.0001831.00221598-.0002594.00329578-.00007629.00108838-.00015258.00216687-.0002594.00325394-.00007629.0011028-.0001831.00226688-.00028991.00336766-.00009155.00114024-.00019836.00222409-.00028992.00336409-.0000763.00110352-.00019836.00220751-.00030517.0033096-.00009156.00113678-.0001831.00220776-.00032044.00334692-.00009155.00121057-.00019836.00238133-.00035095.00358928-.0000763.0011158-.00024414.00230395-.00035095.00341963-.00012207.0014844-.00030518.002944-.00045777.00442732-.0001068.00107455-.0001831.00208914-.00035095.00316405-.00012207.00110364-.0002594.00227237-.00038147.00336993-.00012207.00110483-.00021362.00216365-.00038147.00326466-.00012207.00112379-.00027466.00223935-.00039673.00336194-.00015258.00107205-.00027465.00217474-.00039672.00324607-.0001526.00112725-.00027466.00222194-.00042725.00334323-.00012207.00106978-.0002594.00214314-.00041199.0032121-.00015259.00105118-.00030517.00216197-.00042724.00321185-.00012207.00097418-.0002594.00195837-.00039673.00293445-.00022888.00162447-.0004425.00322664-.00068665.00484872-.00003052.00068689-.0001831.00138045-.00028992.00207615-.00013732.00105322-.00032043.00215256-.00047302.00320399-.00015259.00105488-.0003357.00218964-.00048828.00324416-.00016785.00113738-.00030517.00226557-.0005188.00339997-.0001831.00109446-.00035095.0022087-.0005188.00330615-.00016784.00109124-.00033569.00216746-.0005188.0032593-.00016784.00106108-.00035095.00216389-.0005188.00321972-.00016784.00107062-.00039672.00221932-.00054931.0032915-.0001831.00108134-.00038147.00213372-.00054932.00321554-.00006103.00033546-.00012207.00065458-.00016784.00098992-.00045777.00260257-.00091553.00516808-.0013733.00776362-.0001831.00093341-.00035095.0019213-.00053405.00285435-.00016785.00102496-.00038147.00204038-.00056458.00306284-.00021362.00105632-.00041198.00209904-.00059509.00315714-.0001831.00109482-.00041199.00217629-.00062561.00326526-.00021362.00105536-.00038147.00210595-.00062561.00315607-.00021362.00105512-.00041199.00206613-.00061035.003119-.00021363.00105332-.00042725.00210702-.00064087.00316428-.00027466.00108564-.00045777.00214696-.00067139.0032338-.00004577.00022685-.00009155.00044965-.00013733.0006765-.0007782.00371504-.00157165.00743473-.00238037.0111344-.00019836.0010035-.0004425.00199126-.00067139.00298463-.00024414.00103772-.00048828.00206352-.0007019.00311172-.00013733.00097359-.0004425.00201345-.00068665.00299752-.00021362.00110042-.00047302.00214541-.00074768.00323904-.00016784.00101578-.00048828.00205385-.00071716.00307667-.00024414.00106442-.00050354.00209177-.00074768.00314105-.00001526.00006902-.00004578.00013733-.00006103.00020623-.00115967.00486612-.00236512.0097022-.00361634.0145402-.00015259.00098669-.00050354.00199282-.00076294.00297045-.00024414.00098634-.0005188.00201225-.0007782.00300872-.00021362.0010419-.00053405.00205326-.00082397.00309503-.00041199.0009867-.00056458.00199426-.00079346.00296784-.0002594.00103915-.00057983.00209558-.00085449.00313473-.00032043.00099206-.00054932.00200545-.00083923.0030222-.00001526.00005101-.00003052.00010144-.00004578.00015258-.00161743.00588584-.0032959.01170695-.0050354.01754844-.0003357.00097299-.00056457.00194538-.00086975.00291717-.00016785.00097752-.00057983.00193-.00086975.00288534-.00021362.00095427-.0005951.00194526-.00090027.00292361-.00021362.00097907-.0005951.001997-.00091553.0029943-.00004577.00015128-.00009155.0002948-.00013733.00044596-.00239563.00770605-.0048828.01536107-.00746154.02298582-.00042725.00099742-.0006714.00197243-.00100708.00295841-.00003052.00099934-.0006714.00192845-.00099183.00287974-.00033569.00099373-.00067138.00195217-.00100708.0029353-.00001525.00001656-.00001525.00003278-.00001525.00004935-.00302124.0086472-.0061493.01722192-.00938416.02575874-.00021362.00096202-.00074768.00193632-.00109863.00287509-.00050354.00092769-.00073242.00192714-.0011139.0028801 0 .0000162-.00001525.00004494-.00001525.00006127-.00367737.00949001-.00746155.01883733-.01141358.02818441-.00001526.00003207-.00001526.00003994-.00003051.00007212-.0111847.02646363-.02346802.05233658-.03681946.07757557Zm-15.17492676.53291404h-4.29768372c-.54284668-.01090479-.97955322-.45434308-.97955322-.99979412 0-.55229417.44770813-1.00000005 1-1.00000005H195.72973633c.54283142.0109048.97956848.454343.97956848.99979411 0 .55229408-.44770813 1.00000006-1 1.00000006Zm-9 0h-4.29768372c-.54284668-.01090479-.97955322-.45434308-.97955322-.99979412 0-.55229417.44770813-1.00000005 1-1.00000005H186.72973633c.54283142.0109048.97956848.454343.97956848.99979411 0 .55229408-.44770813 1.00000006-1 1.00000006Zm-9 0h-4.29768372c-.54284668-.01090479-.97955322-.45434308-.97955322-.99979412 0-.55229417.44770813-1.00000005 1-1.00000005H177.72973633c.54283142.0109048.97956848.454343.97956848.99979411 0 .55229408-.44770813 1.00000006-1 1.00000006Zm-9 0h-4.29768372c-.54284668-.01090479-.97955322-.45434308-.97955322-.99979412 0-.55229417.44770813-1.00000005 1-1.00000005H168.72973633c.54283142.0109048.97956848.454343.97956848.99979411 0 .55229408-.44770813 1.00000006-1 1.00000006Zm-9 0h-4.29768372c-.54284668-.01090479-.97955322-.45434308-.97955322-.99979412 0-.55229417.44770813-1.00000005 1-1.00000005H159.72973633c.54283142.0109048.97956848.454343.97956848.99979411 0 .55229408-.44770813 1.00000006-1 1.00000006Zm-9 0h-4.29768372c-.54284668-.01090479-.97955322-.45434308-.97955322-.99979412 0-.55229417.44770813-1.00000005 1-1.00000005H150.72973633c.54283142.0109048.97956848.454343.97956848.99979411 0 .55229408-.44770813 1.00000006-1 1.00000006Zm-9 0h-4.29768372c-.54284668-.01090479-.97955322-.45434308-.97955322-.99979412 0-.55229417.44770813-1.00000005 1-1.00000005H141.72973633c.54283142.0109048.97956848.454343.97956848.99979411 0 .55229408-.44770813 1.00000006-1 1.00000006Zm-9 0h-4.29768372c-.54284668-.01090479-.97955322-.45434308-.97955322-.99979412 0-.55229417.44770813-1.00000005 1-1.00000005H132.72973633c.54283142.0109048.97956848.454343.97956848.99979411 0 .55229408-.44770813 1.00000006-1 1.00000006Zm-9 0h-4.29769135c-.54283905-.01090479-.97954559-.45434308-.97954559-.99979412 0-.55229417.44770813-1.00000005 1-1.00000005h4.29766846c.54283905.0109048.97956848.454343.97956848.99979411 0 .55229408-.44770813 1.00000006-1 1.00000006Zm-9 0h-4.29769135c-.54283905-.01090479-.97954559-.45434308-.97954559-.99979412 0-.55229417.44770813-1.00000005 1-1.00000005h4.29766846c.54283905.0109048.97956848.454343.97956848.99979411 0 .55229408-.44770813 1.00000006-1 1.00000006Zm-9 0h-4.29769135c-.54283905-.01090479-.97954559-.45434308-.97954559-.99979412 0-.55229417.44770813-1.00000005 1-1.00000005h4.29766846c.54283905.0109048.97956848.454343.97956848.99979411 0 .55229408-.44770813 1.00000006-1 1.00000006Zm-9 0h-4.29769135c-.54283905-.01090479-.97954559-.45434308-.97954559-.99979412 0-.55229417.44770813-1.00000005 1-1.00000005h4.29766846c.54283905.0109048.97956848.454343.97956848.99979411 0 .55229408-.44770813 1.00000006-1 1.00000006Zm-9 0h-4.29769135c-.54283905-.01090479-.97954559-.45434308-.97954559-.99979412 0-.55229417.44770813-1.00000005 1-1.00000005h4.29766846c.54283905.0109048.97956848.454343.97956848.99979411 0 .55229408-.44770813 1.00000006-1 1.00000006Zm-9 0h-4.29769135c-.54283905-.01090479-.97954559-.45434308-.97954559-.99979412 0-.55229417.44770813-1.00000005 1-1.00000005h4.29766846c.54283905.0109048.97956848.454343.97956848.99979411 0 .55229408-.44770813 1.00000006-1 1.00000006Zm-9 0h-4.29769135c-.54283905-.01090479-.97954559-.45434308-.97954559-.99979412 0-.55229417.44770813-1.00000005 1-1.00000005h4.29766846c.54283905.0109048.97956848.454343.97956848.99979411 0 .55229408-.44770813 1.00000006-1 1.00000006Zm-9.00000382 0h-4.29768753c-.54283905-.01090479-.97954559-.45434308-.97954559-.99979412 0-.55229417.44770432-1.00000005 1-1.00000005h4.29766846c.54283905.0109048.97956466.454343.97956466.99979411 0 .55229408-.44770431 1.00000006-1 1.00000006Zm-9 0h-4.29768753c-.54283905-.01090479-.97954559-.45434308-.97954559-.99979412 0-.55229417.44770432-1.00000005 1-1.00000005h4.29766846c.54283905.0109048.97956466.454343.97956466.99979411 0 .55229408-.44770431 1.00000006-1 1.00000006Zm-9 0h-4.29768753c-.54283905-.01090479-.97954559-.45434308-.97954559-.99979412 0-.55229417.44770432-1.00000005 1-1.00000005h4.29766846c.54283905.0109048.97956466.454343.97956466.99979411 0 .55229408-.44770431 1.00000006-1 1.00000006Zm-9 0h-4.29768562c-.54284096-.01090479-.9795494-.45434308-.9795494-.99979412 0-.55229417.44770622-1.00000005 1-1.00000005h4.29767036c.54283905.0109048.97956466.454343.97956466.99979411 0 .55229408-.44770431 1.00000006-1 1.00000006Zm-9 0h-4.29768562c-.54284096-.01090479-.9795494-.45434308-.9795494-.99979412 0-.55229417.44770622-1.00000005 1-1.00000005h4.29766845c.54284096.0109048.97956657.454343.97956657.99979411 0 .55229408-.44770431 1.00000006-1 1.00000006ZM4.17179441 6.49869776c-.23201131-.00001145-.46514606-.08031416-.65428686-.24413681-.41747069-.36155892-.46276474-.99311781-.1011765-1.41058827.07098866-.0819602.1429739-.16315221.2158122-.24342537.0225773-.0309124.04714657-.06083488.07374669-.08963346.11220336-.12148094.22677827-.24131298.34370303-.35941744a2.13712027 2.13712027 0 0 1 .00103712-.00104713c.00789881-.00797654.01580668-.015944.02372694-.0239048.00048256-.00048542.00088883-.0008936.00137139-.00137902a14.84413793 14.84413793 0 0 1 .01127815-.01132011c.00064468-.00064612.00131655-.00131941.00196123-.00196552.00381517-.00382376.00763178-.00764609.01145124-.01146603.00424338-.0042429.00843764-.00843096.0126853-.01266766.00048447-.00048351.00089455-.00089264.00137902-.00137615.00403595-.0040245.00815773-.0081296.01219701-.01214838.00064707-.00064373.00114489-.00113916.00179196-.00178242a14.32135497 14.32135497 0 0 1 .01237726-.01229477c.00032377-.0003209.00069761-.0006914.00102139-.0010128.00876379-.00869274.01750707-.01734352.02628994-.02601051.00016212-.00016022.00036335-.00035906.00052595-.0005188.00426674-.00421047.00857114-.00845194.01284265-.01265621.00048733-.0004797.00076819-.00075579.00125551-.00123549.00430775-.0042386.00861264-.00847006.01292468-.01270246.0001626-.00015974.00019311-.0001893.00035572-.00034905.01357841-.0133264.02711534-.02656006.0407381-.03982448.00016356-.00015903.00013971-.0001359.0003028-.00029493.26084232-.25396823.52983331-.49654698.80646419-.72757458l.00002289-.00001931a14.08790573 14.08790573 0 0 1 .04361343-.03627491l.00020313-.00016857a14.24395919 14.24395919 0 0 1 .01430273-.01183128.47084873.47084873 0 0 1 .00050497-.000417c.00475836-.00393056.00941563-.0077734.01417828-.01169705.00017405-.00014329.00033474-.00027537.0005083-.00041866.00941182-.0077529.0188861-.01553655.0283146-.02326298l.00103235-.0008459c.00458098-.0037532.0090971-.00744773.01368237-.01119471.00052309-.00042749.00069713-.00057006.0012207-.00099755.00450897-.0036838.00901985-.00736499.01353264-.01104283.00052404-.00042677.00102854-.00083733.0015521-.0012641.00443697-.00361466.00892067-.00726366.01336146-.0108726.00017452-.00014186.0002141-.00017428.00038862-.00031614.00440264-.00357771.00878668-.00713492.01319313-.01070666.00069952-.00056696.00166369-.00134898.0023632-.00191594.00413895-.0033536.00824214-.0066738.01238394-.01002216a13.6887881 13.6887881 0 0 1 .00303555-.00245285c.00402784-.00325418.00799465-.00645661.01202535-.00970578.00105143-.00084758.00224495-.00180865.00329686-.00265575a14.41424015 14.41424015 0 0 1 .01082658-.00871396c.00105238-.0008459.00192929-.00155139.00298167-.00239706.00376606-.00302624.00752878-.00604582.01129722-.00906801.00105334-.00084448.00232792-.0018673.00338173-.0027113.0038848-.0031135.00770808-.00617313.01159573-.0092821a24.62662367 24.62662367 0 0 1 .00409746-.0032754c.00369644-.00295353.00732756-.00585246.01102638-.00880194.00140715-.00112176.0032072-.00255585.00461483-.00367713a12.36299696 12.36299696 0 0 1 .00896073-.007133 14.62075743 14.62075743 0 0 1 .00574922-.00457073 14.41795822 14.41795822 0 0 1 .00883723-.0070157c.00158548-.00125766.00341033-.00270534.0049963-.00396228a13.8800035 13.8800035 0 0 1 .01033735-.00818396 12.44555996 12.44555996 0 0 1 .005548-.0043857c.00313043-.0024736.00621557-.00490976.00934791-.0073805.00229407-.00180983.0044055-.00347328.006701-.00528168.0020504-.00161529.0041027-.00323057.00615358-.00484467a14.55016584 14.55016584 0 0 1 .00919342-.00722837 15.55086983 15.55086983 0 0 1 .00596333-.00468183c.0028286-.00221967.00580787-.00455546.0086379-.006773.00232554-.00182175.00475311-.0037229.0070796-.00554322.00212383-.00166154.00461388-.0036087.00673866-.00526882.00190068-.00148534.0037942-.00296306.00569535-.00444746a14.53800349 14.53800349 0 0 1 .01078176-.00840807c.00128126-.00099825.00257922-.00200867.00386095-.00300645.00407744-.00317383.00840712-.00654078.01248741-.00970984.00112725-.00087547.00225068-.00174832.0033784-.00262332.00514555-.00399399.01001405-.00776791.01516437-.01175427.00023365-.00018072.00050688-.00039268.00074053-.0005734.16694927-.12920332.33634853-.25429201.50822401-.37533736.04952765-.03459382.10103321-.06404424.1540389-.08853245.43976546-.2316041.9934559-.1048212 1.28516532.31336927.31530475.4520874.20525932 1.07384086-.24545336 1.39040876-.10986424.07658863-.21883059.15527725-.32598162.23540068-.00009823.00007343-.00027275.0002036-.0003705.00027704-.00601912.00450182-.01249743.00935507-.01850796.01386833-.0001955.00014639-.0002923.00021935-.00048733.00036621a11.33880291 11.33880291 0 0 0-.00814485.00612164c-.00063467.00047731-.00123024.00092554-.00186491.00140285-.0021019.00158167-.00458288.0034504-.00668335.0050335-.0008297.00062513-.00173998.00131082-.00256968.00193643-.00270033.0020361-.00557756.00420713-.00827598.00624561-.00053644.00040484-.00117827.00089074-.0017147.00129605-.00209857.00158596-.00416089.00314474-.0062585.00473213-.00131511.00099516-.00264549.00200271-.0039606.00299883-.0017972.0013609-.00281144.00212908-.00460816.0034914-.00251198.00190496-.0053482.0040574-.00785923.00596332a11.83001656 11.83001656 0 0 0-.00993538.00755263c-.00059795.0004549-.00097084.00073814-.0015688.00119352-.00170135.0012951-.00344657.00262499-.00514745.00392103-.00089645.00068331-.00224209.00170899-.00313807.0023923a15.17934957 15.17934957 0 0 0-.00524997.00400543c-.00089598.00068426-.00142193.00108623-.00231743.0017705-.00626278.00478362-.012465.00953102-.01871777.01432657a4.76127763 4.76127763 0 0 0-.00161552.00123882 13.52100759 13.52100759 0 0 0-.0066166.00507975l-.00011825.00009107c-.64660883.49680376-1.24132109 1.05784989-1.77462816 1.67359162-.19774962.22832965-.47621823.34532642-.7563014.34531307ZM.99980164 15.4435606c-.5454511 0-.98888933-.43675518-.99979412-.97956753v-.46357918c0-.17688655.00325236-.35307884.0097405-.52889823.01073775-.28556157.0301644-.5707407.05819368-.85471917.00080665-.01410007.00190532-.02816772.00331422-.04235267.00022526-.00224114.00050402-.00501538.00073033-.00725651l.0000771-.00076294a14.90252711 14.90252711 0 0 1 .00103936-.01024532.33235898.33235898 0 0 0 .00003018-.0002966c.00401486-.03942966.00817031-.07860183.01251289-.11795997l.0000137-.00012398c.1056775-.95779228.30831596-1.89413357.60307297-2.79735756.17224586-.52340889.73572915-.80906486 1.25995153-.63808632.52505874.17123604.81188225.73570633.64064717 1.26076508-.1199975.36793709-.22214627.74296665-.30595112 1.12274933-.00349378.02552318-.0079863.05106163-.01351952.07666206-.00812936.03761005-.01608253.07529068-.02385736.11302948l-.00007725.0003748c-.00046444.00225543-.0009408.00457382-.00140404.00682926-.00023485.00114345-.00040746.00198173-.00064183.00312519-.00041127.00200557-.00082397.0040226-.00123429.00602817-.00023389.00114346-.0003953.0019312-.00062895.00307465-.00040984.00200557-.00082564.00404644-.0012343.00605201-.00023316.00114441-.00049161.0024128-.0007243.00355626-.00038791.0019064-.00077701.00382328-.00116397.00572967a8.82618367 8.82618367 0 0 0-.00069904.00344753 11.45952287 11.45952287 0 0 0-.00112438.00555611c-.00030828.00152588-.00057387.00284004-.00088167.00436592a18.0877371 18.0877371 0 0 0-.00099469.00493717c-.00030708.00152684-.00053262.0026474-.00083923.00417328a13.50640733 13.50640733 0 0 0-.00101375.00505162 12.6769751 12.6769751 0 0 0-.001014.005064c-.00026107.00130654-.00053549.00267888-.00079632.00398446-.00038099.00190925-.00070238.00352-.00108242.00542927-.00026011.00130653-.00053024.0026617-.00078988.00396823-.0003798.00190926-.00075793.00381566-.00113678.00572586a12.26497484 12.26497484 0 0 0-.00076365.00385285 12.81106616 12.81106616 0 0 0-.00100684.00509453c-.00028801.00145721-.00057269.00289726-.00085998.00435543-.0003767.0019102-.00076342.00387668-.00113916.00578785-.00022722.0011568-.000453.00230217-.00067997.00345897a11.5574256 11.5574256 0 0 0-.00134158.00684643c-.0001576.0008049-.00031972.00163174-.00047708.00243569a12.7212536 12.7212536 0 0 0-.00180912.00927543l-.00000143.00000668c-.00439239.02256298-.00865221.0447874-.01291752.0673952-.00006652.00035287-.0001316.00069905-.00019813.00105191-.00050592.00268173-.00116467.00618267-.00166869.00886631-.00000953.00005055-.00001502.00007916-.00002432.0001297-.09629035.51284218-.15992689 1.03735733-.18848824 1.5707283-.00001407.00026226-.00002122.00039387-.00003529.00065613-.00215578.04026222-.00408768.08010578-.00584387.12047005-.00001383.00031566-.00002647.0006113-.00004006.00092697-.0001216.00279808-.00027251.00630665-.00039196.00910473-.00001573.00036812-.0000286.0006733-.00004435.00104141a12.87183489 12.87183489 0 0 0-.00036215.00857067c-.00002861.00068379-.0000558.001338-.0000844.0020218-.00011659.00279903-.00022078.00531005-.0003357.00810908a5.08884787 5.08884787 0 0 1-.00007796.00190545c-.00011444.00279998-.00019574.0048027-.00030827.00760269-.00003815.000947-.0000732.0018158-.0001111.0027628a10.70231787 10.70231787 0 0 0-.00031019.0078163 3.69204222 3.69204222 0 0 0-.0000639.00162316 12.39864704 12.39864704 0 0 0-.00033354.00857544 2.59147036 2.59147036 0 0 0-.00005246.00135994 11.22165707 11.22165707 0 0 0-.00034046.00894928c-.00001192.00031566-.0000248.00065517-.00003671.00097084-.0001204.00320148-.00020647.00551605-.0003245.00871849-.0000174.00047398-.00003838.0010376-.00005578.00151157-.00011778.0032034-.00022006.00601101-.00033522.00921345-.00000739.00021076-.0000124.00034618-.00002003.00055695-.00011515.00320339-.0002408.00674247-.00035357.00994587l-9.5e-7.00003242c-.00071836.02042484-.00135804.04003811-.00197363.0604887-.00001574.00052738-.00003267.00110531-.00004864.0016327a12.29711741 12.29711741 0 0 0-.00025058.00844478c-.00001693.00058079-.00003433.00118732-.00005126.00176716-.00006985.00240707-.00015712.00541591-.00022578.00782299-.00003314.00116062-.00006652.00235653-.00009918.0035181-.0000565.00200558-.00012684.00450611-.0001824.00651264-.00003218.00116063-.0000615.00224018-.00009321.00340176-.00005508.00200653-.00011778.00430584-.00017167.00631237-.00003552.00131989-.0000677.00253964-.00010275.00385952a12.0362668 12.0362668 0 0 0-.00017262.00655746c-.00002336.00089741-.0000472.00182343-.00007033.00272084a11.35128433 11.35128433 0 0 0-.00017953.00703525 8.5275832 8.5275832 0 0 0-.0000894.00357724c-.00005008.00200748-.0001073.00433826-.00015641.00634574-.00002837.00116253-.00005293.0021782-.00008106.00334073a9.82560747 9.82560747 0 0 0-.00015593.0065422c-.0000298.00126743-.00005889.0025034-.00008845.00377178-.0000465.00200844-.000103.00446415-.00014854.0064726a12.44315022 12.44315022 0 0 0-.0000677.00298213 12.07955156 12.07955156 0 0 0-.00015832.00714397c-.00002313.00105763-.00004387.00199318-.00006676.00304986a12.0214658 12.0214658 0 0 0-.0001397.0065546c-.00002552.00121593-.00005103.0024147-.0000763.00363064a14.19594607 14.19594607 0 0 0-.00011468.00559234c-.00003124.00153351-.00006366.00311756-.00009442.00465107-.00004005.00201035-.00008678.00440693-.00012588.00641728-.0000186.00095176-.00003863.00196457-.00005674.00291633-.00004626.0024128-.0000856.00451279-.00013042.00692559-.0000217.00116443-.0000434.00230217-.00006461.00346565-.00004435.0024128-.00007868.00434494-.0001216.00675773-.00001788.00100518-.00003528.00195504-.00005292.00296021-.00004244.00241375-.00006533.00379086-.00010634.0062046-.00002336.00137616-.00004673.00270367-.00006962.00407982-.00010752.0064373-.00021481.01320076-.00031209.01963997-.00001502.00100613-.0000286.00195027-.00004339.0029564-.00003576.0024147-.00006962.0046854-.00010395.00710105-.00001717.00121784-.00003362.00242806-.00005054.0036459-.00002814.00201225-.00005556.00395203-.0000825.00596523-.00002074.00153542-.0000391.00297356-.00005912.00450993-.00002647.00201225-.0000496.00377083-.00007487.00578403-.00001621.00127125-.00003123.00253105-.00004697.00380326-.0000248.0020132-.00004768.00387668-.00007128.00589084-.00001812.00153637-.00003577.00309086-.0000534.00462723-.00001837.0016117-.0000422.00370216-.00005985.00531292-.00001812.00164318-.00003529.00326061-.0000527.0049038a10.47975347 10.47975347 0 0 0-.00004958.00474166 17.88559803 17.88559803 0 0 0-.00005079.00510788 12.85138037 12.85138037 0 0 0-.0000503.00525093c-.00001455.00153732-.00002766.00299263-.00004149.0045309a17.75255713 17.75255713 0 0 0-.00004458.0050831 11.73274798 11.73274798 0 0 0-.00004196.00501727c-.00001312.00161267-.00002861.00358677-.00004125.00519944a9.78348238 9.78348238 0 0 0-.00003433.00455856c-.00001192.00161266-.00002575.00357628-.00003696.00518894a11.01226583 11.01226583 0 0 0-.0000329.00486088c-.00001335.00201607-.00002098.00329399-.00003338.00531006a14.7531557 14.7531557 0 0 0-.00002718.00459385c-.00000918.00161361-.0000205.00371647-.00002908.00532913-.00000811.00153923-.00001586.00299072-.00002337.004529-.00000787.00161361-.00001776.00381279-.00002503.0054264-.00000704.00159264-.00001419.0031767-.00002075.00476838-.00000655.00161457-.00001156.00304222-.00001752.00465679-.00000644.0017519-.00001311.00346851-.00001884.00522041-.00000655.00201798-.00000965.00324059-.00001525.00525856-.00000441.00154019-.00000918.00309658-.00001288.00463677-.000005.00201797-.00000727.00337123-.00001132.0053892-.0000031.0015402-.00000656.00301553-.00000906.00455571-.00000263.00161457-.00000525.00405789-.00000716.00567341-.00000166.00143433-.00000393.00287151-.00000512.00430489-.0000025.00323104-.00000417.00662899-.00000417.00986003v.44314671c0 .55226517-.44770587 1-1 1Zm0 9.00000095c-.5454511 0-.98888933-.43675613-.99979412-.97956848v-4.89322662c0-.55226517.44770588-1 .99999999-1 .54545116 0 .98888934.43673706.99979413.9795494v4.8932457c0 .55226326-.44770587 1-1 1Zm0 9c-.5454511 0-.98888933-.43675613-.99979412-.97956848v-4.89322662c0-.55226517.44770588-1 .99999999-1 .54545116 0 .98888934.43673706.99979413.9795494v4.8932457c0 .55226517-.44770587 1-1 1Zm0 9c-.5454511 0-.98888933-.43675613-.99979412-.97956848v-4.89322662c0-.55226517.44770588-1 .99999999-1 .54545116 0 .98888934.43673706.99979413.9795494v4.8932457c0 .55226517-.44770587 1-1 1Zm0 9c-.5454511 0-.98888933-.43675613-.99979412-.97956848v-4.89322662c0-.55226517.44770588-1 .99999999-1 .54545116 0 .98888934.43673706.99979413.9795494v4.8932457c0 .55226517-.44770587 1-1 1Zm0 9c-.5454511 0-.98888933-.43675613-.99979412-.97956848v-4.89322662c0-.55226517.44770588-1 .99999999-1 .54545116 0 .98888934.43673706.99979413.9795494v4.8932457c0 .55226517-.44770587 1-1 1Zm0 8.99999619c-.5454511 0-.98888933-.43675232-.99979412-.97956085v-4.89323044c0-.55226517.44770588-1 .99999999-1 .54545116 0 .98888934.43673706.99979413.9795494v4.89324189c0 .55226898-.44770587 1-1 1Zm0 9c-.5454511 0-.98888933-.43675232-.99979412-.97956085v-4.89322663c0-.55226898.44770588-1 .99999999-1 .54545116 0 .98888934.43673706.99979413.9795456v4.89324188c0 .55226898-.44770587 1-1 1Zm.9982059-1.44405365-1.99800002.0009079 1.99800002-.0009079Zm-.9982059 10.44405365c-.5454511 0-.98888933-.43675232-.99979412-.97956085v-4.89322663c0-.55226898.44770588-1 .99999999-1 .54545116 0 .98888934.43673706.99979413.9795456v4.89324188c0 .55226898-.44770587 1-1 1Zm0 9c-.5454511 0-.98888933-.43675232-.99979412-.97956085v-4.89322663c0-.55226898.44770588-1 .99999999-1 .54545116 0 .98888934.43673706.99979413.9795456v4.89324188c0 .55226898-.44770587 1-1 1Zm0 9c-.5454511 0-.98888933-.43675232-.99979412-.97956085v-4.89322663c0-.55226898.44770588-1 .99999999-1 .54545116 0 .98888934.43673706.99979413.9795456v4.89324188c0 .55226898-.44770587 1-1 1Zm0 9c-.5454511 0-.98888933-.43675232-.99979412-.97956848v-4.893219c0-.55226898.44770588-1 .99999999-1 .54545116 0 .98888934.43673706.99979413.9795456v4.89324188c0 .55226898-.44770587 1-1 1Zm0 9c-.5454511 0-.98888933-.43675232-.99979412-.97956848v-4.893219c0-.55226898.44770588-1 .99999999-1 .54545116 0 .98888934.43673706.99979413.9795456v4.89324188c0 .55226898-.44770587 1-1 1Zm0 9c-.5454511 0-.98888933-.43675232-.99979412-.97956848v-4.893219c0-.55226898.44770588-1 .99999999-1 .54545116 0 .98888934.43673706.99979413.9795456v4.89324188c0 .55226135-.44770587 1-1 1Zm0 9c-.5454511 0-.98888933-.43675232-.99979412-.97956848v-4.893219c0-.55226135.44770588-1 .99999999-1 .54545116 0 .98888934.43673706.99979413.97953797v4.8932495c0 .55226136-.44770587 1-1 1Zm0 9c-.5454511 0-.98888933-.43675232-.99979412-.97956848v-4.893219c0-.55226135.44770588-1 .99999999-1 .54545116 0 .98888934.43673706.99979413.97953797v4.8932495c0 .55226136-.44770587 1-1 1Zm0 9c-.5454511 0-.98888933-.43675232-.99979412-.97956848v-4.893219c0-.55226135.44770588-1 .99999999-1 .54545116 0 .98888934.43673706.99979413.97953797v4.8932495c0 .55226136-.44770587 1-1 1Zm0 9c-.5454511 0-.98888933-.43675232-.99979412-.97956848v-4.893219c0-.55226135.44770588-1 .99999999-1 .54545116 0 .98888934.43673706.99979413.97953797v4.8932495c0 .55226136-.44770587 1-1 1Zm0 9c-.5454511 0-.98888933-.43675232-.99979412-.97956848v-4.893219c0-.55226135.44770588-1 .99999999-1 .54545116 0 .98888934.43673706.99979413.97953797v4.8932495c0 .55226136-.44770587 1-1 1Zm0 9c-.5454511 0-.98888933-.43675232-.99979412-.97956848v-4.893219c0-.55226135.44770588-1 .99999999-1 .54545116 0 .98888934.43673706.99979413.97953797v4.8932495c0 .55226136-.44770587 1-1 1Zm0 9c-.5454511 0-.98888933-.43675232-.99979412-.97956848v-4.893219c0-.55226135.44770588-1 .99999999-1 .54545116 0 .98888934.43673706.99979413.97953797v4.8932495c0 .55226136-.44770587 1-1 1Zm0 9c-.5454511 0-.98888933-.43675232-.99979412-.97956848v-4.893219c0-.55226135.44770588-1 .99999999-1 .54545116 0 .98888934.43673706.99979413.97953797v4.8932495c0 .55226136-.44770587 1-1 1Zm0 9c-.5454511 0-.98888933-.43675232-.99979412-.97956848v-4.893219c0-.55226135.44770588-1 .99999999-1 .54545116 0 .98888934.43673706.99979413.97953797v4.8932495c0 .55226136-.44770587 1-1 1Zm.00008821 5.55615234c-.4355207 0-.80564946-.27789306-.94292235-.66616821.12203084.34466553.42772159.60250855.79941052.65594482-.09664345-.01408386-.19285733-.04267883-.28566462-.08683776-.35980537-.17114258-.57035715-.52929688-.57066387-.9028473H.00000752v-1.42903137c0-.55226135.44770588-1 .99999999-1 .54545116 0 .98888934.43673706.99979413.97953797v1.4494934c0 .09635926-.01361025.18954468-.03899908.2776947-.0742532.25735474-.24909616.47203065-.47920657.5987549-.11243248.06161498-.23603213.10131835-.36362981.11656188-.02300418.0027008-.04622078.00462341-.06967557.0057373.00074577-.00003051.00150979-.00006103.0022552-.0001068-.00119924.00006103-.00234318.00012206-.00354361.00016784.00063896-.00001526.000314 0-.00198639.00009155.00104475-.00003051-.00124979.00006104-.00309586.00013733.00093984-.00003052.00183713-.0000763.00277626-.00012207-.00173402.0000763-.00353038.00015259-.00526678.00021362.0006752-.00001525.00139045-.00004577.0020653-.00007629-.00126887.00006104-.0025444.00010681-.00381458.00015259.00060701-.00003052-.00067473.00001526-.0018506.00006103.00092065-.00001525-.00129963.00004578-.00278867.00010682.0006833-.00004578.00045991-.00004578-.0020045.00006103.0009042-.00003052-.00015307-.00001526-.0027355.0000763.00053275-.00001526-.0007801.00001525-.00155759.00004577.00096214-.00006103-.00160002.00004578-.00290346.00006104.00035751.00001525-.00025451-.00001526-.00110137.00003051.00129378-.00007629-.0025078.00006104-.00390327.0000763.00038802-.00001526-.00071574.00001526-.0012145.00003052.00101065.00004577-.00187886.00003051-.00310577.00004577.00038815.00003052-.00059294.00001526-.00109231.00001526h.00008762c-.00137854.00001526-.00277245.00003052-.0041523.00004578h.0000434-.0007378c.00116265.00013733-.0022118.00001526-.00347757.00003051H1.005193h-.0011679.00000453c-.00138151.00001526-.00275683.00001526-.00413978.00001526Zm.05123794-.001297c.00134635-.00006103.00267625-.00013732.00402129-.00019836-.00136423.00006104-.00265563.00013733-.00402129.00019837Zm.00520766-.00027465c.00105643-.00006104.00213182-.00012207.0031873-.0001831-.00106347.00006103-.00212288.00012206-.0031873.0001831Zm.00421202-.00024414c.00131905-.0000763.00263596-.0001526.0039537-.00024414-.00132764.00009155-.00262463.00016784-.0039537.00024414Zm.00504935-.00030518c.00100589-.00006103.00203287-.00013733.00303805-.00019836-.00099468.00006103-.00204265.00013733-.00303805.00019836Zm.0043242-.00028992c.00129187-.00009155.00257373-.0001831.00386417-.00027465-.00129128.00009155-.00257159.0001831-.00386417.00027465Zm.00480425-.00035095c.00107503-.0000763.00214171-.00015259.0032159-.00024414-.00109123.00009155-.0021237.00016785-.0032159.00024414Zm.00446594-.0003357c.001217-.00009154.00237775-.0001831.00359344-.0002899-.0012219.0001068-.00237012.00019836-.00359344.0002899Zm.00418758-.00033568c.00126326-.00010682.00252688-.00021363.00378883-.00032044-.00125349.00010681-.00253403.00021362-.00378883.00032044Zm.00505364-.00042725c.00102341-.00009155.00206208-.0001831.00308466-.00027466-.00102127.00009155-.00206256.0001831-.00308466.00027466Zm.00415254-.00036621c.00128376-.00012207.0025934-.00024414.00387573-.00036621-.00128305.00012207-.00259125.00024414-.00387573.0003662Zm.00501632-.00047302c.00104452-.00010682.00203789-.00021363.00308145-.00030518-.00105143.00010681-.00202907.00019836-.00308145.00030518Zm.00416267-.000412c.00128031-.00013732.0025773-.00027465.00385619-.00039672-.0012796.00012207-.00257516.0002594-.00385619.00039673Zm.00507832-.00053405c.00092328-.00009155.00186622-.00019836.00278878-.00030517-.00095045.0001068-.00183761.00019836-.00278878.00030517Zm.00431108-.00047302c.00063837-.00006104.00127411-.00013733.00191212-.00021362-.00065863.00009155-.00124717.00019836-.00191212.00021362Zm.00191212-.00021362c.00162196-.00018311.00328004-.00038147.0049007-.00056458.13057494-.0153656.25342845-.05586243.36362981-.11656189.0202676-.0111084.04018236-.0229187.05968345-.03544617-.05301726.0341797-.10947478.06347657-.16875434.08728028-.00010646.00003051-.00022996.00009155-.0003363.00012207-.00274193.00109863-.00550162.00219726-.00825548.00326538-.0000428.00003052-.00009822.00004577-.00014102.00006103-.00654483.00256348-.01312888.00505066-.01974022.00746155-.00282812.00109863-.00571669.00209046-.0085876.00309754-.00285197.00105285-.00568986.00201416-.00854874.00300598-.00290894.00083923-.00582254.0019989-.00871336.0029602-.0010171.00032044-.0020839.0007019-.0031097.0010376-.00191676.00057983-.0037856.0012207-.00567436.00186157-.0009774.00035095-.00195801.00062561-.00294387.00094605-.00290597.0009613-.00571668.0018158-.00860894.00273132-.00291836.00093079-.00582504.00180054-.0087434.00267029-.00112665.00035095-.00227702.00068664-.00342238.00102234-.0017935.00050354-.00360263.00106811-.00540579.00160217-.001068.0003357-.00219512.00062561-.0032649.00094604-.00173986.00048829-.00351942.00099183-.0052588.00149537-.00116933.00027465-.0022626.00064087-.0034424.0009613-.00196935.00045776-.00394226.00109863-.00592197.00161743-.0009588.00024414-.00195384.00054932-.0029099.0007782-.00117921.00035095-.00236082.00065613-.00354468.00094604-.00169278.00053406-.00338173.00090027-.00508905.00132752-.00122535.00030518-.00242984.00061035-.00365972.00094604-.00169242.000412-.00343192.00086976-.00512219.00128174-.00122976.00032044-.00243902.00061035-.00367331.00090027-.0017575.00041199-.00341106.00080872-.0051719.00125122-.0012337.00032044-.00250697.00061035-.00374532.00088501-.0012399.0003357-.00241744.00056458-.00365436.0008545-.00173712.00042724-.00344443.00079345-.00519073.00117492-.00123489.00027466-.00252628.00056458-.00375867.00083923-.00163233.00036621-.00338041.00073243-.00501299.00109864-.0012437.00027465-.00256061.00056457-.00380241.00080871-.00156928.0003357-.00316155.00064087-.00473059.00099182-.00139868.00027466-.0027858.00057984-.00418412.0008545-.00148118.00027465-.00290764.00056457-.00439108.00086975-.00152611.00030517-.00305903.00057983-.00458693.00090027-.00130451.00024414-.00253487.00050354-.00383795.00073242-.00172925.00032043-.00339293.00064087-.00512528.00094604-.00127506.00022888-.00258148.00048828-.00385869.0007019-.00170242.00028992-.00337743.00056458-.0050832.00088502-.00131023.00024414-.00268185.00048828-.00399637.00068664-.00158012.00027466-.00323176.00056458-.00481701.00080872-.00138497.00024414-.0028733.00048828-.00426006.00068664-.0014068.0002594-.00282562.00047303-.00423003.00067139a8.40377385 8.40377385 0 0 0-.00476813.00073242c-.0013671.00021362-.00264668.00039673-.00401723.0005951-.00165427.00024414-.00330615.00045776-.00496745.00071716-.00134445.00019836-.00272441.00039673-.004071.00056457-.00166404.00021363-.00323355.0004425-.00490654.00065613-.00142753.00019837-.0027914.00039673-.00422203.00054932-.00152004.00019836-.00305188.00039673-.00457478.00056457-.00152647.00021363-.00309527.00036621-.00462234.00056458-.00131654.00016784-.00264585.0003662-.00396871.00045776-.00059045.0000763-.00119484.00013733-.00178564.00019837Zm.7005856-.41207886c.00002623-.00004578.00005699-.00009155.00008321-.00012207-.00003636.00004577-.00004685.00006103-.0000832.00012207Zm.00517297-.00730896c.00005198-.0000763.00009632-.00013733.0001483-.00021362-.000036.00006103-.0001123.00016784-.0001483.00021362Zm.00506151-.00727844c.00008988-.00012207.0001744-.00024414.00026417-.00038147-.00008881.00013733-.00017524.0002594-.00026417.00038147Zm.00185144-.00268555c.00002551-.00004578.00005484-.00009155.00008035-.00012207-.00001765.00003052-.00006259.00009155-.00008035.00012207Zm.00321877-.00474548c.00007594-.00010682.0001564-.00022889.00023246-.0003357-.00007022.00010681-.00016237.00024414-.00023246.0003357Zm.00175607-.002594c.00011337-.0001831.00023306-.00035095.00034642-.0005188-.00012219.0001831-.00022423.0003357-.00034642.0005188Zm.00331462-.00497436c.00004994-.0000763.00009656-.0001526.0001465-.00022889-.00003457.00006104-.00011193.00016785-.0001465.00022889Zm.0015887-.0024109c.00016188-.00024413.00030458-.00045776.0004661-.0007019-.00015497.00022889-.0003109.00047303-.0004661.0007019Zm.00486135-.00744628c.0001719-.00027466.00032366-.00050354.00049532-.0007782-.00017.00027466-.0003252.00050354-.00049532.0007782Zm.00473166-.00740051c.00020611-.0003357.00040877-.00065613.0006144-.00097657-.0002011.00032044-.00041282.00065613-.0006144.00097657Zm.00187611-.00297547c.00021696-.00035095.00042677-.00068664.00064338-.00102234-.00021673.0003357-.0004263.00067139-.00064338.00102234Zm.00276876-.0044403c.00023913-.00038148.00049317-.00079346.0007317-.00117493-.00024783.00039673-.00048327.0007782-.0007317.00117492Zm.00190139-.00306702c.00026154-.00042725.0005182-.00083924.00077903-.00126648-.00026286.00042724-.00051558.00083923-.00077903.00126648Zm.0026263-.00428772c.00028312-.00045777.00056588-.00093079.00084817-.00138855-.00027704.00045776-.0005703.00093078-.00084817.00138855Zm.0019958-.00328064c.00024617-.00041199.0005045-.00083924.00075006-.00125122-.00024294.00039673-.0005064.00083923-.00075006.00125122Zm.00227058-.00378418c.00038397-.00064087.00078678-.00131226.00116944-.00195313-.00040161.00067139-.0007664.00128174-.00116944.00195313Zm.00220215-.00370789c.0003004-.00050354.00062204-.0010376.0009216-.0015564-.00030338.0005188-.00061738.00105286-.0009216.0015564Zm.00187719-.00317383c.00055146-.00094604.00111067-.00189209.00165904-.00283813-.00055397.00094604-.00110198.00189209-.00165904.00283813Zm.00244033-.0041809c.0003761-.00064087.00075722-.00131226.0011319-.00195313-.0003618.00062561-.00076879.00132752-.0011319.00195313Zm.00197399-.00341797c.00045276-.0007782.00089884-.0015564.00134945-.00234986-.00045276.00079346-.00089467.0015564-.00134945.00234986Zm.00221622-.00387573c.00046062-.00080872.00093007-.0016327.00138843-.00244141-.0004493.00079346-.0009371.0016632-.00138843.0024414Zm.00211287-.00372315c.00042378-.00074768.00084948-.00151062.00127136-.0022583-.00043058.00076294-.00083875.00149536-.00127136.0022583Zm.001886-.00335693c.00057602-.0010376.00114215-.00204468.00171471-.00308228-.00056445.00102234-.00114691.00205994-.0017147.00308228Zm.00239015-.00430298c.00041735-.00076294.0008328-.00151062.00124824-.00227356-.000409.00074768-.00083732.00152588-.00124824.00227356Zm.00189316-.00344849c.0005672-.0010376.00114167-.00209045.0017053-.00312805a1.39389092 1.39389092 0 0 1-.0017053.00312805Zm.0022663-.00416565c.00045418-.00083923.00090622-.00167846.00135802-.0025177-.00044715.00083924-.00090849.00169373-.00135803.0025177Zm.00190186-.00352478c.00059056-.00109863.00118208-.00221252.00176859-.00331115-.00059104.00109863-.0011735.00219726-.0017686.00331115Zm.00211143-.00396728c.00050056-.00094605.001001-.0018921.00149858-.00283814-.00049865.00094605-.00099695.0018921-.00149858.00283814Zm.0019995-.00378418c.0012151-.00231934.00241148-.00462342.00360894-.00695801-.00119746.0023346-.00239384.00463867-.00360894.006958Zm.00403213-.00778198c.00055099-.00106812.0011059-.0021515.00165308-.00323487-.00054348.00106812-.00110579.00216675-.00165308.00323487Zm.00179387-.00350953c.0006088-.00119018.00122249-.00241088.00182652-.00360107-.00060987.00120544-.00121176.00239563-.00182652.00360107Zm.00211632-.0041809c.00054192-.00108338.0010904-.00218201.00162852-.00326539a.4386922.4386922 0 0 1-.00162852.00326539Zm.00185263-.00370789c.00060856-.0012207.0012083-.0024414.00181198-.0036621-.00059938.0012207-.00120783.0024414-.00181198.0036621Zm.00199401-.00402832c.00057316-.00117493.00112653-.00230408.00169516-.00346375-.00044799.00091553-.00088632.0018158-.00135589.00276185-.00011122.00022888-.0002278.00047302-.00033927.0007019Zm.00184691-.00378418c.00004411-.00009155.00007785-.00015259.00012195-.00024414-.00003993.0000763-.0000708.00013733-.00011074.00022888l-.0000112.00001526Zm.00012195-.00024414c.00056792-.00117493.00113929-.00234985.00170279-.00352478-.00056934.00119018-.0011295.0023346-.00170279.00352478Zm.00170279-.00352478c.00062764-.00131226.00123787-.00257874.00186062-.003891H1.9032371c-.00061738.001297-.00123536.002594-.00185823.003891Z" style="fill:#fff;stroke:none" transform="translate(3 3)"/></g></svg>