<svg xmlns="http://www.w3.org/2000/svg" width="16" height="16"><path data-name="패스 762" d="M0 0h16v16H0z" fill="none"/><path data-name="패스 763" d="M10.667 8.666h-2A.669.669 0 008 9.333v2a.669.669 0 00.667.667h2a.669.669 0 00.666-.667v-2a.669.669 0 00-.666-.667zm0-6.667v.667H5.333V2A.667.667 0 104 2v.667h-.667A1.327 1.327 0 002.007 4L2 13.333a1.333 1.333 0 001.333 1.333h9.333A1.337 1.337 0 0014 13.333V4a1.337 1.337 0 00-1.333-1.333H12V2a.667.667 0 10-1.333 0zM12 13.333H4a.669.669 0 01-.667-.667V6h9.333v6.667a.669.669 0 01-.666.666z" fill="#8c96a5"/></svg>