<svg id="icn_filter_show" xmlns="http://www.w3.org/2000/svg" width="24" height="24"><defs><style>.cls-1{fill:none}</style></defs><g id="그룹_572" data-name="그룹 572" transform="translate(-4 -4)"><g id="filter_alt_black_24dp_1_" data-name="filter_alt_black_24dp (1)" transform="translate(7 7)"><path id="패스_757" data-name="패스 757" class="cls-1" d="M0 0h18m0 18H0"/><path id="패스_758" data-name="패스 758" d="M4.206 5.274c1.837 2.357 4.552 5.846 4.552 5.846v3.956a1.588 1.588 0 001.583 1.582 1.588 1.588 0 001.583-1.582V11.12l4.552-5.846A.79.79 0 0015.844 4H4.831a.789.789 0 00-.625 1.274z" transform="translate(-1.342 -1.329)" fill="#8c96a5"/><path id="패스_759" data-name="패스 759" class="cls-1" d="M0 0h18v18H0z"/></g><path id="사각형_8152" data-name="사각형 8152" class="cls-1" transform="translate(4 4)" d="M0 0h24v24H0z"/></g></svg>