<svg id="icn_header_fullscreen" xmlns="http://www.w3.org/2000/svg" width="32" height="32" viewBox="0 0 32 32">
  <defs>
    <style>
      .cls-1 {
        fill: none;
      }

      .cls-2 {
        fill: #fff;
      }
    </style>
  </defs>
  <g id="구성_요소_28_145" data-name="구성 요소 28 – 145">
    <rect id="사각형_8030" data-name="사각형 8030" class="cls-1" width="32" height="32" rx="8"/>
    <g id="fullscreen_black_24dp_1_" data-name="fullscreen_black_24dp (1)" transform="translate(4 4)">
      <path id="패스_749" data-name="패스 749" class="cls-1" d="M0,0H24V24H0Z"/>
      <path id="패스_750" data-name="패스 750" class="cls-2" d="M6,14a1,1,0,0,0-1,1v3a1,1,0,0,0,1,1H9a1,1,0,0,0,0-2H7V15A1,1,0,0,0,6,14Zm0-4A1,1,0,0,0,7,9V7H9A1,1,0,0,0,9,5H6A1,1,0,0,0,5,6V9A1,1,0,0,0,6,10Zm11,7H15a1,1,0,0,0,0,2h3a1,1,0,0,0,1-1V15a1,1,0,0,0-2,0ZM14,6a1,1,0,0,0,1,1h2V9a1,1,0,0,0,2,0V6a1,1,0,0,0-1-1H15A1,1,0,0,0,14,6Z"/>
    </g>
  </g>
</svg>
