<svg id="icn_header_account" xmlns="http://www.w3.org/2000/svg" width="32" height="32" viewBox="0 0 32 32">
  <defs>
    <style>
      .cls-1, .cls-2 {
        fill: none;
      }

      .cls-1 {
        opacity: 0.16;
      }

      .cls-3 {
        fill: #fff;
      }
    </style>
  </defs>
  <g id="구성_요소_4_55" data-name="구성 요소 4 – 55">
    <g id="그룹_13" data-name="그룹 13" transform="translate(3.717 -0.283)">
      <rect id="사각형_5634" data-name="사각형 5634" class="cls-1" width="32" height="32" rx="8" transform="translate(-3.717 0.283)"/>
    </g>
    <g id="person_outline_black_24dp" transform="translate(4 4)">
      <path id="패스_703" data-name="패스 703" class="cls-2" d="M0,0H24V24H0Z"/>
      <path id="패스_704" data-name="패스 704" class="cls-3" d="M12,5.9A2.1,2.1,0,1,1,9.9,8,2.1,2.1,0,0,1,12,5.9m0,9c2.97,0,6.1,1.46,6.1,2.1v1.1H5.9V17c0-.64,3.13-2.1,6.1-2.1M12,4a4,4,0,1,0,4,4A4,4,0,0,0,12,4Zm0,9c-2.67,0-8,1.34-8,4v3H20V17C20,14.34,14.67,13,12,13Z"/>
    </g>
  </g>
</svg>
