<svg id="icn_common_calendar" xmlns="http://www.w3.org/2000/svg" width="24" height="24"><defs><style>.cls-1{fill:none}</style></defs><g id="date_range_black_24dp" transform="translate(2 2)"><path id="패스_29755" data-name="패스 29755" class="cls-1" d="M0 0h20v20H0Z"/><path id="패스_29756" data-name="패스 29756" d="M16.333 3.667H15.5v-.834a.833.833 0 0 0-1.667 0v.833H7.167v-.833a.833.833 0 1 0-1.667 0v.833h-.833a1.659 1.659 0 0 0-1.659 1.667L3 17a1.666 1.666 0 0 0 1.667 1.667h11.666A1.672 1.672 0 0 0 18 17V5.333a1.672 1.672 0 0 0-1.667-1.666Zm0 12.5A.836.836 0 0 1 15.5 17h-10a.836.836 0 0 1-.833-.833V7.833h11.666Zm-10-6.667H8v1.667H6.333Zm3.333 0h1.667v1.667H9.667ZM13 9.5h1.667v1.667H13Z" transform="translate(-.5 -.333)" style="fill:#6c6c6c"/></g><path id="사각형_17211" data-name="사각형 17211" class="cls-1" d="M0 0h24v24H0z"/></svg>