<svg id="icn_common_arrow" xmlns="http://www.w3.org/2000/svg" width="16" height="16" viewBox="0 0 16 16">
  <defs>
    <style>
      .cls-1 {
        fill: none;
      }

      .cls-2 {
        fill: #6c6c6c;
      }
    </style>
  </defs>
  <path id="패스_772" data-name="패스 772" class="cls-1" d="M4,0h8a4,4,0,0,1,4,4v8a4,4,0,0,1-4,4H4a4,4,0,0,1-4-4V4A4,4,0,0,1,4,0Z" transform="translate(0 16) rotate(-90)"/>
  <g id="chevron_right_black_24dp">
    <path id="패스_764" data-name="패스 764" class="cls-1" d="M0,0H16V16H0Z"/>
    <path id="패스_765" data-name="패스 765" class="cls-2" d="M9.2,6.616a.677.677,0,0,0,0,.959l2.639,2.639L9.2,12.854a.678.678,0,1,0,.959.959l3.122-3.122a.677.677,0,0,0,0-.959L10.156,6.609A.684.684,0,0,0,9.2,6.616Z" transform="translate(-3.045 -2.214)"/>
  </g>
</svg>
