<svg id="icn_common_setting" xmlns="http://www.w3.org/2000/svg" width="32" height="32" viewBox="0 0 32 32">
  <defs>
    <style>
      .cls-1 {
        fill: none;
      }

      .cls-2 {
        fill: #8c96a5;
      }
    </style>
  </defs>
  <rect id="사각형_5724" data-name="사각형 5724" class="cls-1" width="32" height="32" rx="8"/>
  <g id="settings_black_24dp_1_" data-name="settings_black_24dp (1)" transform="translate(7 7)">
    <rect id="사각형_8063" data-name="사각형 8063" class="cls-1" width="20" height="20" transform="translate(-1 -1)"/>
    <path id="패스_770" data-name="패스 770" class="cls-2" d="M14.337,9.065c0-.163-.007-.318-.021-.48l1.3-1A.715.715,0,0,0,15.8,6.67L14.491,4.388a.688.688,0,0,0-.875-.3l-1.505.643a5.3,5.3,0,0,0-.819-.48l-.2-1.632A.7.7,0,0,0,10.395,2H7.783a.706.706,0,0,0-.7.622l-.2,1.632a5.3,5.3,0,0,0-.819.48L4.555,4.091a.688.688,0,0,0-.875.3L2.37,6.677a.716.716,0,0,0,.182.918l1.3,1c-.014.155-.021.311-.021.473s.007.318.021.48l-1.3,1a.715.715,0,0,0-.182.918l1.309,2.282a.688.688,0,0,0,.875.3L6.06,13.4a5.3,5.3,0,0,0,.819.48l.2,1.632a.7.7,0,0,0,.693.622h2.612a.7.7,0,0,0,.693-.622l.2-1.632a5.3,5.3,0,0,0,.819-.48l1.505.643a.688.688,0,0,0,.875-.3l1.309-2.282a.716.716,0,0,0-.182-.918l-1.3-1A3.685,3.685,0,0,0,14.337,9.065ZM9.113,11.538a2.473,2.473,0,1,1,2.451-2.473A2.465,2.465,0,0,1,9.113,11.538Z" transform="translate(-0.085 -0.065)"/>
  </g>
</svg>
