<svg id="icn_login_password" xmlns="http://www.w3.org/2000/svg" width="24" height="24"><defs><style>.cls-1{fill:none}</style></defs><path id="사각형_14629" data-name="사각형 14629" class="cls-1" d="M0 0h24v24H0z"/><g id="lock_black_24dp" transform="translate(2 2)"><g id="그룹_5182" data-name="그룹 5182"><path id="패스_28463" data-name="패스 28463" class="cls-1" d="M0 0h20v20H0z"/><path id="패스_28464" data-name="패스 28464" d="M0 0h20v20H0z" opacity=".87" fill="none"/></g><path id="패스_28465" data-name="패스 28465" d="M15.667 6.833h-.833V5.167a4.167 4.167 0 00-8.333 0v1.666h-.834A1.672 1.672 0 004 8.5v8.333A1.672 1.672 0 005.667 18.5h10a1.672 1.672 0 001.667-1.667V8.5a1.672 1.672 0 00-1.667-1.667zm-5 7.5a1.667 1.667 0 111.667-1.667 1.672 1.672 0 01-1.667 1.667zm-2.5-7.5V5.167a2.5 2.5 0 015 0v1.666z" transform="translate(-.667 -.167)" fill="#8c96a5"/></g></svg>