<svg id="icn_login_password" xmlns="http://www.w3.org/2000/svg" width="24" height="24" viewBox="0 0 24 24">
  <defs>
    <style>
      .cls-1, .cls-2 {
        fill: none;
      }

      .cls-2 {
        opacity: 0.87;
      }

      .cls-3 {
        fill: #667082;
      }
    </style>
  </defs>
  <rect id="사각형_14629" data-name="사각형 14629" class="cls-1" width="24" height="24"/>
  <g id="lock_black_24dp" transform="translate(2 2)">
    <g id="그룹_5182" data-name="그룹 5182">
      <path id="패스_28463" data-name="패스 28463" class="cls-1" d="M0,0H20V20H0Z"/>
      <path id="패스_28464" data-name="패스 28464" class="cls-2" d="M0,0H20V20H0Z"/>
    </g>
    <path id="패스_28465" data-name="패스 28465" class="cls-3" d="M15.667,6.833h-.833V5.167a4.167,4.167,0,0,0-8.333,0V6.833H5.667A1.672,1.672,0,0,0,4,8.5v8.333A1.672,1.672,0,0,0,5.667,18.5h10a1.672,1.672,0,0,0,1.667-1.667V8.5A1.672,1.672,0,0,0,15.667,6.833Zm-5,7.5a1.667,1.667,0,1,1,1.667-1.667A1.672,1.672,0,0,1,10.667,14.333Zm-2.5-7.5V5.167a2.5,2.5,0,0,1,5,0V6.833Z" transform="translate(-0.667 -0.167)"/>
  </g>
</svg>
