<svg id="icn_login_youtube" xmlns="http://www.w3.org/2000/svg" width="24" height="24"><defs><style>.cls-1{fill:none}</style></defs><path id="사각형_14635" data-name="사각형 14635" class="cls-1" d="M0 0h24v24H0z"/><g id="그룹_5192" data-name="그룹 5192" transform="translate(-1772 -740)"><g id="smart_display_black_24dp" transform="translate(1774.267 742.267)"><g id="그룹_5189" data-name="그룹 5189"><path id="사각형_14632" data-name="사각형 14632" class="cls-1" transform="translate(-.267 -.267)" d="M0 0h20v20H0z"/></g><g id="그룹_5190" data-name="그룹 5190" transform="translate(1.622 3.244)"><path id="패스_28466" data-name="패스 28466" d="M16.6 4H3.622A1.627 1.627 0 002 5.622v9.733a1.627 1.627 0 001.622 1.622H16.6a1.627 1.627 0 001.622-1.622V5.622A1.627 1.627 0 0016.6 4zm-8.517 8.654V8.323a.811.811 0 011.249-.681L12.7 9.807a.811.811 0 010 1.363l-3.368 2.165a.811.811 0 01-1.249-.681z" transform="translate(-2 -4)" fill="#b9c3d2"/></g></g></g></svg>