<svg id="img_report_good" xmlns="http://www.w3.org/2000/svg" width="58" height="16"><defs><style>.cls-2{fill:#b9c3d2}</style></defs><path id="사각형_14631" data-name="사각형 14631" fill="#fff" d="M0 0h58v16H0z"/><g id="logo_vetec"><g id="그룹_270" data-name="그룹 270"><g id="그룹_269" data-name="그룹 269"><path id="패스_570" data-name="패스 570" class="cls-2" d="M17.007 14.226h3.936l2.382 8.674 2.124-8.675h4.2L25.552 29.9H21.2z" transform="translate(-17.007 -14.184)"/><path id="사각형_3681" data-name="사각형 3681" class="cls-2" transform="translate(14.464 .043)" d="M0 0h9.375v3.73H0z"/><path id="사각형_3682" data-name="사각형 3682" class="cls-2" transform="translate(25.496 .043)" d="M0 0h9.375v3.73H0z"/><path id="패스_571" data-name="패스 571" class="cls-2" d="M34.826 21.484v9.53H44.2V27.44h-5.7v-2.485h5.7v-3.471z" transform="translate(-20.362 -15.501)"/><path id="사각형_3683" data-name="사각형 3683" class="cls-2" transform="translate(36.659 .043)" d="M0 0h9.375v3.73H0z"/><path id="패스_572" data-name="패스 572" class="cls-2" d="M62.17 21.484v9.53h9.375V27.44h-5.7v-2.485h5.7v-3.471z" transform="translate(-25.511 -15.501)"/><g id="그룹_268" data-name="그룹 268" transform="translate(27.954 5.983)"><path id="사각형_3684" data-name="사각형 3684" class="cls-2" d="M0 0h4.454v9.53H0z"/></g><path id="패스_573" data-name="패스 573" class="cls-2" d="M85.592 14.216v3.762S80 17.612 80 22.054s5.593 3.918 5.593 3.918v4.18s-9.943.835-9.943-8.1 9.942-7.836 9.942-7.836z" transform="translate(-28.04 -14.173)"/></g></g></g></svg>