<svg id="icn_login_home" xmlns="http://www.w3.org/2000/svg" width="24" height="24"><defs><style>.cls-1{fill:none}</style></defs><path id="사각형_14634" data-name="사각형 14634" class="cls-1" d="M0 0h24v24H0z"/><g id="home_black_24dp_1_" data-name="home_black_24dp (1)" transform="translate(2 2)"><path id="패스_28467" data-name="패스 28467" class="cls-1" d="M0 0h20v20H0z"/><path id="패스_28468" data-name="패스 28468" d="M8.8 16.393v-4.167h3.334v4.167a.836.836 0 00.833.833h2.5a.836.836 0 00.833-.833v-5.834h1.42a.413.413 0 00.275-.725l-6.968-6.276a.84.84 0 00-1.117 0L2.942 9.834a.415.415 0 00.275.725h1.417v5.834a.836.836 0 00.833.833h2.5a.836.836 0 00.833-.833z" transform="translate(-.467 -.557)" fill="#b9c3d2"/></g></svg>