<svg id="icn_login_kakaotalk" xmlns="http://www.w3.org/2000/svg" width="24" height="24"><defs><style>.cls-1{fill:none}</style></defs><path id="사각형_14636" data-name="사각형 14636" class="cls-1" d="M0 0h24v24H0z"/><g id="그룹_5191" data-name="그룹 5191" transform="translate(-1803 -739)"><path id="사각형_14633" data-name="사각형 14633" class="cls-1" transform="translate(1805 741)" d="M0 0h20v20H0z"/><path id="합치기_63" data-name="합치기 63" d="M2.818 826.422l.638-2.357A5.837 5.837 0 010 819.019C0 815.695 3.4 813 7.6 813s7.6 2.7 7.6 6.019-3.4 6.019-7.6 6.019a9.522 9.522 0 01-1.837-.177l-2.581 1.817a.235.235 0 01-.136.044.238.238 0 01-.231-.3z" transform="translate(1807.397 -69)" fill="#8c96a5"/></g></svg>
