<svg id="icn_menu_monitoring" xmlns="http://www.w3.org/2000/svg" width="32" height="32"><defs><style>.cls-1{fill:none}</style></defs><rect id="사각형_8066" data-name="사각형 8066" class="cls-1" width="32" height="32" rx="8"/><g id="그룹_51" data-name="그룹 51" transform="translate(65.703 -117.297)"><path id="사각형_5780" data-name="사각형 5780" class="cls-1" transform="translate(-61.703 121.297)" d="M0 0h24v24H0z"/><path id="desktop_windows_black_24dp_1_" data-name="desktop_windows_black_24dp (1)" d="M18.171 2H2.717A1.722 1.722 0 001 3.717v10.3a1.722 1.722 0 001.717 1.717h6.01v1.717h-.858a.859.859 0 000 1.717h5.151a.859.859 0 000-1.717h-.859v-1.714h6.01a1.722 1.722 0 001.717-1.717V3.717A1.722 1.722 0 0018.171 2zm-.859 12.02H3.576a.861.861 0 01-.859-.859V4.576a.861.861 0 01.859-.859h13.737a.861.861 0 01.859.859v8.586a.861.861 0 01-.859.858z" transform="translate(-60.147 122.712)" fill="#8c96a5"/></g></svg>