<svg id="icn_menu_report" xmlns="http://www.w3.org/2000/svg" width="32" height="32"><defs><style>.cls-1{fill:none}</style></defs><rect id="사각형_5722" data-name="사각형 5722" class="cls-1" width="32" height="32" rx="8"/><g id="summarize_black_24dp" transform="translate(4 4)"><g id="그룹_46" data-name="그룹 46"><path id="패스_768" data-name="패스 768" class="cls-1" d="M0 0h24v24H0z"/></g><g id="그룹_48" data-name="그룹 48" transform="translate(3.043 3.043)"><g id="그룹_47" data-name="그룹 47"><path id="패스_769" data-name="패스 769" d="M14.943 3H4.99a1.988 1.988 0 00-1.98 1.99L3 18.924a1.988 1.988 0 001.981 1.99h13.943a2 2 0 001.99-1.99V8.971zM7.976 16.933a1 1 0 111-1 1 1 0 01-1 1zm0-3.981a1 1 0 111-1 1 1 0 01-1 1zm0-3.981a1 1 0 111-1 1 1 0 01-1 1zm5.971 1V4.493l5.474 5.474z" transform="translate(-3 -3)" fill="#8c96a5"/></g></g></g></svg>