<svg id="icn_menu_event" xmlns="http://www.w3.org/2000/svg" width="32" height="32"><defs><style>.cls-1{fill:none}</style></defs><rect id="사각형_5721" data-name="사각형 5721" class="cls-1" width="32" height="32" rx="8"/><g id="notifications_black_24dp_4_" data-name="notifications_black_24dp (4)" transform="translate(4 4)"><path id="패스_766" data-name="패스 766" class="cls-1" d="M0 0h24v24H0z"/><path id="패스_767" data-name="패스 767" d="M11.977 21.976a2 2 0 001.994-2H9.983a2 2 0 001.994 2zm5.982-5.993V10.99c0-3.066-1.635-5.633-4.486-6.312V4a1.5 1.5 0 10-2.991 0v.679C7.62 5.357 6 7.913 6 10.99v4.994l-1.291 1.288a1 1 0 00.7 1.708h13.13a1 1 0 00.708-1.708z" transform="translate(.023 .013)" fill="#fff"/></g></svg>
