<svg id="icn_menu_arrow" xmlns="http://www.w3.org/2000/svg" width="16" height="16"><defs><style>.cls-1{fill:none}</style></defs><path id="사각형_9479" data-name="사각형 9479" class="cls-1" d="M0 0h16v16H0z"/><g id="그룹_641" data-name="그룹 641" transform="translate(-15670 -5055)"><path id="패스_772" data-name="패스 772" class="cls-1" d="M4 0h8a4 4 0 014 4v8a4 4 0 01-4 4H4a4 4 0 01-4-4V4a4 4 0 014-4z" transform="translate(15670 5055)"/><g id="chevron_right_black_24dp" transform="rotate(90 5315.5 10370.5)"><path id="패스_764" data-name="패스 764" class="cls-1" d="M0 0h16v16H0z"/><path id="패스_765" data-name="패스 765" d="M9.2 6.616a.677.677 0 000 .959l2.639 2.639-2.639 2.64a.678.678 0 10.959.959l3.122-3.122a.677.677 0 000-.959l-3.125-3.123a.684.684 0 00-.956.007z" transform="translate(-3.045 -2.214)" fill="#fff"/></g></g></svg>
