<svg id="icn_menu_setting" xmlns="http://www.w3.org/2000/svg" width="32" height="32"><defs><style>.cls-1{fill:none}</style></defs><rect id="사각형_5724" data-name="사각형 5724" class="cls-1" width="32" height="32" rx="8"/><g id="settings_black_24dp_1_" data-name="settings_black_24dp (1)" transform="translate(4.786 4.786)"><path id="사각형_8063" data-name="사각형 8063" class="cls-1" transform="translate(-.786 -.786)" d="M0 0h24v24H0z"/><path id="패스_770" data-name="패스 770" d="M18.258 11.279a7.01 7.01 0 00-.028-.631l1.726-1.308a.933.933 0 00.244-1.207l-1.735-3a.916.916 0 00-1.16-.39l-1.995.844a7.04 7.04 0 00-1.086-.631l-.269-2.143A.931.931 0 0013.034 2H9.573a.933.933 0 00-.928.817L8.376 4.96a7.04 7.04 0 00-1.086.631L5.3 4.747a.916.916 0 00-1.16.39L2.4 8.143a.935.935 0 00.241 1.206l1.726 1.308a6.993 6.993 0 000 1.253l-1.725 1.308a.933.933 0 00-.242 1.206l1.735 3a.916.916 0 001.16.39l1.995-.844a7.04 7.04 0 001.086.631l.269 2.143a.931.931 0 00.919.817h3.461a.931.931 0 00.919-.817l.269-2.143a7.04 7.04 0 001.086-.631l1.995.844a.916.916 0 001.16-.39l1.735-3a.935.935 0 00-.241-1.206l-1.727-1.308a4.8 4.8 0 00.037-.631zm-6.922 3.248a3.248 3.248 0 113.248-3.248 3.251 3.251 0 01-3.248 3.247z" transform="translate(-.085 -.065)" fill="#8c96a5"/></g></svg>