<svg id="icn_menu_bom-logo" xmlns="http://www.w3.org/2000/svg" width="32" height="32"><defs><style>.cls-2{fill:#003cff;stroke:#003cff;stroke-width:.5px}</style></defs><path id="사각형_5632" data-name="사각형 5632" fill="none" d="M0 0h32v32H0z"/><g id="그룹_5" data-name="그룹 5" transform="translate(5 .906)"><g id="그룹_4" data-name="그룹 4"><path id="패스_617" data-name="패스 617" class="cls-2" d="M-15 348.511a10.841 10.841 0 00-1.755.147v-7.836a.753.753 0 00-.752-.752.748.748 0 00-.312.071l-.191.126-3.6 2.395-.145.1-3.642 2.426-.1.065a.745.745 0 00-.289.588v13.449A10.792 10.792 0 00-15 370.07a10.687 10.687 0 005.851-1.73c.183-.12.366-.24.544-.37a.75.75 0 00.159-1.05.4.4 0 00-.038-.041l-.091-.092-2.614-2.613-.08-.08-2.8-2.8-.086-.085a.731.731 0 00-.431-.183.62.62 0 00-.163 0 1.868 1.868 0 01-.25.017 1.756 1.756 0 01-1.755-1.754A1.757 1.757 0 01-15 357.536a1.757 1.757 0 011.755 1.754 1.888 1.888 0 01-.017.249.8.8 0 000 .16.739.739 0 00.16.409l.117.118 2.764 2.764.124.123 2.591 2.591.13.13a.037.037 0 00.009.009.747.747 0 00.446.146.749.749 0 00.606-.3c.13-.178.251-.362.37-.546a10.691 10.691 0 001.73-5.848A10.792 10.792 0 00-15 348.511zm4.76 18.739a9.209 9.209 0 01-4.76 1.316 9.287 9.287 0 01-9.276-9.276v-13.346l2.257-1.5v14.846A7.026 7.026 0 00-15 366.31a7.011 7.011 0 003.1-.722zm-4.76-4.7h.056l1.894 1.894a5.5 5.5 0 01-1.949.368 5.523 5.523 0 01-5.515-5.517v-15.856l2.255-1.5v17.351A3.264 3.264 0 00-15 362.55zm5.149-1.311l-1.894-1.9v-.054A3.264 3.264 0 00-15 356.031a3.243 3.243 0 00-1.755.518v-2.484a5.471 5.471 0 011.755-.29 5.522 5.522 0 015.52 5.515 5.516 5.516 0 01-.366 1.949zm2.811 2.809l-1.66-1.662a7.019 7.019 0 00.721-3.1A7.028 7.028 0 00-15 352.271a7 7 0 00-1.755.23v-2.321a9.412 9.412 0 011.755-.166 9.287 9.287 0 019.28 9.276 9.2 9.2 0 01-1.316 4.758z" transform="translate(25.776 -340.07)"/><g id="그룹_3" data-name="그룹 3" transform="translate(8.966 8.354)" opacity=".15"><path id="패스_618" data-name="패스 618" class="cls-2" d="M-11.54 362.086a3.3 3.3 0 00-1.787.528v2.792a1.789 1.789 0 011.787-1.787 1.77 1.77 0 011.153.433l.489-1.525a3.288 3.288 0 00-1.642-.441z" transform="translate(13.327 -354.428)"/><path id="패스_619" data-name="패스 619" class="cls-2" d="M-11.54 356.9a7.127 7.127 0 00-1.787.234v1.593a5.571 5.571 0 011.787-.3 5.573 5.573 0 012.354.523l.471-1.471a7.1 7.1 0 00-2.825-.579z" transform="translate(13.327 -353.07)"/><path id="패스_620" data-name="패스 620" class="cls-2" d="M-11.54 351.713a11.037 11.037 0 00-1.787.15v1.55a9.58 9.58 0 011.787-.169 9.4 9.4 0 013.53.691l.469-1.466a10.9 10.9 0 00-3.999-.756z" transform="translate(13.327 -351.713)"/></g></g></g></svg>