<svg id="icn_menu_analysis" xmlns="http://www.w3.org/2000/svg" width="32" height="32"><defs><style>.cls-1{fill:none}</style></defs><g id="그룹_18" data-name="그룹 18" transform="translate(.325 .325)"><rect id="사각형_5692" data-name="사각형 5692" class="cls-1" width="32" height="32" rx="8" transform="translate(-.325 -.325)"/></g><g id="analytics_black_24dp_1_" data-name="analytics_black_24dp (1)" transform="translate(4.584 4.584)"><path id="사각형_8064" data-name="사각형 8064" class="cls-1" transform="translate(-.584 -.584)" d="M0 0h24v24H0z"/><path id="패스_771" data-name="패스 771" d="M18.139 3H4.892A1.9 1.9 0 003 4.892v13.247a1.9 1.9 0 001.892 1.892h13.247a1.9 1.9 0 001.892-1.892V4.892A1.9 1.9 0 0018.139 3zM7.731 16.246a.949.949 0 01-.946-.946v-2.838a.946.946 0 111.892 0V15.3a.949.949 0 01-.946.946zm3.785 0a.949.949 0 01-.946-.946v-.946a.946.946 0 111.892 0v.946a.949.949 0 01-.946.946zm0-4.731a.946.946 0 11.946-.946.949.949 0 01-.946.947zm3.784 4.731a.949.949 0 01-.946-.946V7.731a.946.946 0 111.892 0V15.3a.949.949 0 01-.946.946z" transform="translate(-.1 -.1)" fill="#8c96a5"/></g></svg>