<svg id="icn_setting_delete" xmlns="http://www.w3.org/2000/svg" width="32" height="32"><defs><style>.cls-1{fill:none}</style></defs><rect id="사각형_8204" data-name="사각형 8204" class="cls-1" width="32" height="32" rx="8"/><g id="delete_black_24dp_1_" data-name="delete_black_24dp (1)" transform="translate(6 6)"><path id="패스_29756" data-name="패스 29756" class="cls-1" d="M0 0h20v20H0Z"/><path id="패스_29757" data-name="패스 29757" d="M5.833 16.333A1.672 1.672 0 0 0 7.5 18h6.667a1.672 1.672 0 0 0 1.667-1.667V8a1.672 1.672 0 0 0-1.667-1.667H7.5A1.672 1.672 0 0 0 5.833 8Zm10-12.5H13.75l-.592-.592A.841.841 0 0 0 12.575 3H9.092a.841.841 0 0 0-.583.242l-.592.592H5.833a.833.833 0 1 0 0 1.667h10a.833.833 0 0 0 0-1.667Z" transform="translate(-.833 -.5)" style="fill:#8c96a5"/></g></svg>