<svg id="icn_setting_edit" xmlns="http://www.w3.org/2000/svg" width="32" height="32"><defs><style>.cls-1{fill:none}</style></defs><rect id="사각형_8204" data-name="사각형 8204" class="cls-1" width="32" height="32" rx="8"/><g id="edit_black_24dp" transform="translate(6 6)"><path id="패스_776" data-name="패스 776" class="cls-1" d="M0 0h20v20H0Z"/><path id="패스_777" data-name="패스 777" d="M3 14.247v2.365a.385.385 0 0 0 .389.388h2.364a.365.365 0 0 0 .272-.117L14.519 8.4 11.6 5.481l-8.483 8.486a.382.382 0 0 0-.117.28Zm13.775-8.1a.775.775 0 0 0 0-1.1l-1.82-1.82a.775.775 0 0 0-1.1 0l-1.42 1.421 2.917 2.917 1.423-1.423Z" style="fill:#8c96a5"/></g></svg>